<?xml version="1.0" encoding="UTF-8" standalone="no"?>
<svg width="1326px" height="340px" viewBox="0 0 1326 340" version="1.1" xmlns="http://www.w3.org/2000/svg" xmlns:xlink="http://www.w3.org/1999/xlink" xmlns:sketch="http://www.bohemiancoding.com/sketch/ns">
    <!-- Generator: Sketch 3.3.3 (12081) - http://www.bohemiancoding.com/sketch -->
    <title>TeamLogo</title>
    <desc>Created with Sketch.</desc>
    <defs></defs>
    <g id="Page-1" stroke="none" stroke-width="1" fill="none" fill-rule="evenodd" sketch:type="MSPage">
        <g id="Logo-1" sketch:type="MSLayerGroup">
            <rect id="Rectangle-1" fill="#000000" sketch:type="MSShapeGroup" x="0" y="0" width="1326" height="340"></rect>
            <g id="eye" transform="translate(59.000000, 93.000000)" sketch:type="MSShapeGroup">
                <g id="Group">
                    <path d="M133.5,0 C84.6890625,0 46.6654018,29.165625 0,76.5 C40.1691964,116.961328 73.9017857,153 133.5,153 C193.038616,153 236.843304,107.339063 267,77.3367187 C236.128125,42.1945312 192.383036,0 133.5,0 L133.5,0 Z M133.5,131.066016 C104.058482,131.066016 80.1,106.562109 80.1,76.5 C80.1,46.378125 104.058482,21.9339844 133.5,21.9339844 C162.941518,21.9339844 186.9,46.4378906 186.9,76.5 C186.9,106.621875 162.941518,131.066016 133.5,131.066016 L133.5,131.066016 Z" id="Shape" fill="#FFFFFF"></path>
                    <path d="M133.5,57.375 C133.5,52.6535156 135.228348,48.3503906 138.029464,45.0035156 C136.539509,44.7644531 135.049554,44.6449219 133.5,44.6449219 C116.335714,44.6449219 102.330134,58.9289063 102.330134,76.5 C102.330134,94.0710937 116.335714,108.355078 133.5,108.355078 C150.664286,108.355078 164.669866,94.0710938 164.669866,76.5 C164.669866,75.1253906 164.55067,73.7507812 164.431473,72.3761719 C161.153571,74.9460937 157.100893,76.5 152.631027,76.5 C142.022545,76.5 133.5,67.9535156 133.5,57.375 L133.5,57.375 Z" id="Shape" fill="#2DC1FF"></path>
                </g>
            </g>
            <path d="M419.048,116.624 C402.056,116.624 387.656,127.136 387.656,142.256 C387.656,157.808 397.736,164.144 418.184,169.616 C437.624,174.944 445.688,180.416 445.688,194.096 C445.688,206.768 434.168,215.264 419.048,215.264 C403.784,215.264 390.968,206.912 388.808,191.504 L383.048,191.504 C385.208,210.656 400.328,220.016 418.904,220.016 C437.624,220.016 451.592,208.64 451.592,193.232 C451.592,177.392 441.368,170.048 420.488,164.432 C401.768,159.248 393.56,154.784 393.56,141.392 C393.56,128 406.52,121.376 418.616,121.376 C432.296,121.376 442.232,129.872 444.392,144.56 L450.152,144.56 C448.28,129.152 438.056,116.624 419.048,116.624 L419.048,116.624 Z M502.944,218 L502.944,118.64 L497.472,118.64 L497.472,218 L502.944,218 Z M644.872,118.64 L636.52,118.64 L598.792,213.248 L561.352,118.64 L552.424,118.64 L552.424,218 L557.896,218 L557.896,161.984 C557.896,149.456 557.896,135.488 557.608,123.392 C562.072,135.344 567.688,149.6 572.584,161.84 L595.192,218 L602.104,218 L624.712,161.984 C629.752,149.6 635.224,135.344 639.688,123.248 C639.4,135.344 639.544,149.456 639.544,161.984 L639.544,218 L644.872,218 L644.872,118.64 Z M760.16,118.64 L754.688,118.64 L754.688,183.728 C754.688,187.04 754.544,189.776 754.256,192.656 C753.104,205.184 744.752,215.264 726.752,215.264 C708.896,215.264 700.544,205.184 699.392,192.656 C699.104,189.776 698.96,187.04 698.96,183.728 L698.96,118.64 L693.488,118.64 L693.488,183.584 C693.488,186.032 693.632,189.056 693.92,193.088 C695.072,208.64 705.872,220.016 726.752,220.016 C747.776,220.016 758.576,208.64 759.728,193.088 C760.016,189.056 760.16,186.032 760.16,183.584 L760.16,118.64 Z M871.704,213.248 L814.248,213.248 L814.248,118.64 L808.776,118.64 L808.776,218 L871.704,218 L871.704,213.248 Z M918.16,218 L918.16,118.64 L912.688,118.64 L912.688,218 L918.16,218 Z M1029.416,213.248 L965.912,213.248 L1028.552,123.248 L1028.552,118.64 L963.32,118.64 L963.32,123.392 L1022.216,123.392 L959.288,213.824 L959.288,218 L1029.416,218 L1029.416,213.248 Z M1134.912,213.248 L1077.456,213.248 L1077.456,170.624 L1130.16,170.624 L1130.16,166.016 L1077.456,166.016 L1077.456,123.248 L1133.472,123.248 L1133.472,118.64 L1071.984,118.64 L1071.984,218 L1134.912,218 L1134.912,213.248 Z M1237.528,191.072 C1236.376,180.128 1231.768,171.2 1222.984,168.176 C1234.648,165.728 1242.712,156.944 1242.712,144.128 C1242.712,129.296 1233.64,121.232 1218.52,119.36 C1213.912,118.784 1209.592,118.64 1204.552,118.64 L1178.344,118.64 L1178.344,218 L1183.816,218 L1183.816,170.768 L1205.848,170.768 C1208.152,170.768 1211.464,170.768 1214.488,170.912 C1226.008,171.488 1230.76,180.992 1232.056,191.936 C1233.64,205.76 1235.656,211.664 1237.96,218 L1244.152,218 C1241.128,211.952 1239.112,205.472 1237.528,191.072 L1237.528,191.072 Z M1183.816,166.016 L1183.816,123.392 L1204.552,123.392 C1209.592,123.392 1213.192,123.536 1217.224,124.112 C1229.752,125.696 1236.808,132.176 1236.808,144.56 C1236.808,156.656 1228.888,164.72 1216.504,165.728 C1212.328,166.016 1209.88,166.016 1205.992,166.016 L1183.816,166.016 Z" id="SIMULIZER" fill="#FFFFFF" sketch:type="MSShapeGroup"></path>
        </g>
    </g>
</svg>